<?xml version="1.0" encoding="UTF-8" standalone="no"?>
<!-- Created with Inkscape (http://www.inkscape.org/) -->

<svg
   xmlns:dc="http://purl.org/dc/elements/1.1/"
   xmlns:cc="http://creativecommons.org/ns#"
   xmlns:rdf="http://www.w3.org/1999/02/22-rdf-syntax-ns#"
   xmlns:svg="http://www.w3.org/2000/svg"
   xmlns="http://www.w3.org/2000/svg"
   xmlns:sodipodi="http://sodipodi.sourceforge.net/DTD/sodipodi-0.dtd"
   xmlns:inkscape="http://www.inkscape.org/namespaces/inkscape"
   width="427"
   height="50"
   id="svg2"
   version="1.1"
   inkscape:version="0.48.0 r9654"
   sodipodi:docname="BBC_Monitoring.svg">
  <defs
     id="defs4">
    <inkscape:perspective
       sodipodi:type="inkscape:persp3d"
       inkscape:vp_x="0 : 27.806 : 1"
       inkscape:vp_y="0 : 1000 : 0"
       inkscape:vp_z="187.086 : 27.806 : 1"
       inkscape:persp3d-origin="93.542999 : 18.537333 : 1"
       id="perspective32" />
    <inkscape:perspective
       id="perspective2511"
       inkscape:persp3d-origin="149.55099 : 11.724 : 1"
       inkscape:vp_z="299.10199 : 17.586 : 1"
       inkscape:vp_y="0 : 1000 : 0"
       inkscape:vp_x="0 : 17.586 : 1"
       sodipodi:type="inkscape:persp3d" />
    <inkscape:perspective
       sodipodi:type="inkscape:persp3d"
       inkscape:vp_x="0 : 526.18109 : 1"
       inkscape:vp_y="0 : 1000 : 0"
       inkscape:vp_z="744.09448 : 526.18109 : 1"
       inkscape:persp3d-origin="372.04724 : 350.78739 : 1"
       id="perspective2576" />
    <inkscape:perspective
       sodipodi:type="inkscape:persp3d"
       inkscape:vp_x="0 : 526.18109 : 1"
       inkscape:vp_y="0 : 1000 : 0"
       inkscape:vp_z="744.09448 : 526.18109 : 1"
       inkscape:persp3d-origin="372.04724 : 350.78739 : 1"
       id="perspective2526" />
    <inkscape:perspective
       sodipodi:type="inkscape:persp3d"
       inkscape:vp_x="0 : 526.18109 : 1"
       inkscape:vp_y="0 : 1000 : 0"
       inkscape:vp_z="744.09448 : 526.18109 : 1"
       inkscape:persp3d-origin="372.04724 : 350.78739 : 1"
       id="perspective2461" />
    <inkscape:perspective
       sodipodi:type="inkscape:persp3d"
       inkscape:vp_x="0 : 526.18109 : 1"
       inkscape:vp_y="0 : 1000 : 0"
       inkscape:vp_z="744.09448 : 526.18109 : 1"
       inkscape:persp3d-origin="372.04724 : 350.78739 : 1"
       id="perspective2615" />
    <inkscape:perspective
       sodipodi:type="inkscape:persp3d"
       inkscape:vp_x="0 : 526.18109 : 1"
       inkscape:vp_y="0 : 1000 : 0"
       inkscape:vp_z="744.09448 : 526.18109 : 1"
       inkscape:persp3d-origin="372.04724 : 350.78739 : 1"
       id="perspective2546" />
    <inkscape:perspective
       sodipodi:type="inkscape:persp3d"
       inkscape:vp_x="0 : 27.806 : 1"
       inkscape:vp_y="0 : 1000 : 0"
       inkscape:vp_z="187.086 : 27.806 : 1"
       inkscape:persp3d-origin="93.542999 : 18.537333 : 1"
       id="perspective2485" />
    <inkscape:perspective
       id="perspective10"
       inkscape:persp3d-origin="372.04724 : 350.78739 : 1"
       inkscape:vp_z="744.09448 : 526.18109 : 1"
       inkscape:vp_y="0 : 1000 : 0"
       inkscape:vp_x="0 : 526.18109 : 1"
       sodipodi:type="inkscape:persp3d" />
    <inkscape:perspective
       id="perspective34"
       inkscape:persp3d-origin="28.5 : 3.3333333 : 1"
       inkscape:vp_z="57 : 5 : 1"
       inkscape:vp_y="0 : 1000 : 0"
       inkscape:vp_x="0 : 5 : 1"
       sodipodi:type="inkscape:persp3d" />
  </defs>
  <sodipodi:namedview
     id="base"
     pagecolor="#ffffff"
     bordercolor="#666666"
     borderopacity="1.0"
     inkscape:pageopacity="0.0"
     inkscape:pageshadow="2"
     inkscape:zoom="1.979899"
     inkscape:cx="360.83681"
     inkscape:cy="-8.5269979"
     inkscape:document-units="px"
     inkscape:current-layer="layer1"
     showgrid="false"
     fit-margin-top="0"
     fit-margin-left="0"
     fit-margin-right="0"
     fit-margin-bottom="0"
     inkscape:window-width="1680"
     inkscape:window-height="1028"
     inkscape:window-x="1912"
     inkscape:window-y="22"
     inkscape:window-maximized="1" />
  <metadata
     id="metadata7">
    <rdf:RDF>
      <cc:Work
         rdf:about="">
        <dc:format>image/svg+xml</dc:format>
        <dc:type
           rdf:resource="http://purl.org/dc/dcmitype/StillImage" />
        <dc:title />
      </cc:Work>
    </rdf:RDF>
  </metadata>
  <g
     inkscape:label="Layer 1"
     inkscape:groupmode="layer"
     id="layer1"
     transform="translate(-443.31903,-335.99345)">
    <g
       transform="matrix(1.2108973,0,0,1.2108973,-129.69237,-531.57588)"
       id="layer1-9"
       inkscape:label="Layer 1">
      <g
         style="font-size:30.64648247px;font-style:normal;font-weight:normal;line-height:125%;letter-spacing:0px;word-spacing:0px;fill:#000000;fill-opacity:1;stroke:none;font-family:Sans"
         id="text3021">
        <path
           d="m 652.36541,727.70381 0,20.90111 -3.00404,0 0,-16.27346 -0.0608,0 -6.43643,8.0909 -0.49008,0 -6.43549,-8.0909 -0.0617,0 0,16.27346 -3.00311,0 0,-20.90111 2.8198,0 6.92557,8.58098 6.95737,-8.58098 2.78894,0 z"
           style="font-variant:normal;font-stretch:normal;font-family:GillSans;-inkscape-font-specification:GillSans"
           id="path3005" />
        <path
           d="m 655.95866,738.15436 c 0,-2.88057 1.02146,-5.38332 3.06437,-7.50823 2.04291,-2.12489 4.76029,-3.18734 8.15216,-3.18736 3.45233,2e-5 6.18998,1.05733 8.21296,3.17192 2.02294,2.11463 3.03441,4.63281 3.03444,7.55454 -3e-5,2.81949 -1.00122,5.30696 -3.00358,7.46241 -2.0024,2.15545 -4.77091,3.23318 -8.30554,3.23318 -3.41183,0 -6.12391,-1.07258 -8.13627,-3.21775 -2.01236,-2.14516 -3.01854,-4.63777 -3.01854,-7.47784 z m 3.09477,0 c -1e-5,2.30885 0.77127,4.21926 2.31382,5.73126 1.54254,1.512 3.47852,2.26799 5.80794,2.26799 2.34935,0 4.29531,-0.75599 5.83787,-2.26799 1.54253,-1.512 2.31381,-3.41212 2.31383,-5.70039 -2e-5,-2.30883 -0.7713,-4.2141 -2.31383,-5.71582 -1.54256,-1.50169 -3.48852,-2.25255 -5.83787,-2.25257 -2.32942,2e-5 -4.2654,0.75088 -5.80794,2.25257 -1.54255,1.50172 -2.31383,3.40699 -2.31382,5.71582 z"
           style="font-variant:normal;font-stretch:normal;font-family:GillSans;-inkscape-font-specification:GillSans"
           id="path3007" />
        <path
           d="m 701.41493,727.70381 0,20.90111 -2.57382,0 -13.97554,-16.08922 0,16.08922 -2.81886,0 0,-20.90111 2.39051,0 14.15885,16.18181 0,-16.18181 2.81886,0 z"
           style="font-variant:normal;font-stretch:normal;font-family:GillSans;-inkscape-font-specification:GillSans"
           id="path3009" />
        <path
           d="m 709.05411,727.70381 0,20.90111 -3.00405,0 0,-20.90111 3.00405,0 z"
           style="font-variant:normal;font-stretch:normal;font-family:GillSans;-inkscape-font-specification:GillSans"
           id="path3011" />
        <path
           d="m 729.37255,727.70381 0,2.69728 -7.23233,0 0,18.20383 -3.00405,0 0,-18.20383 -7.23234,0 0,-2.69728 17.46872,0 z"
           style="font-variant:normal;font-stretch:normal;font-family:GillSans;-inkscape-font-specification:GillSans"
           id="path3013" />
        <path
           d="m 731.25803,738.15436 c 0,-2.88057 1.02145,-5.38332 3.06437,-7.50823 2.0429,-2.12489 4.76029,-3.18734 8.15216,-3.18736 3.45233,2e-5 6.18997,1.05733 8.21295,3.17192 2.02294,2.11463 3.03442,4.63281 3.03444,7.55454 -2e-5,2.81949 -1.00121,5.30696 -3.00357,7.46241 -2.00241,2.15545 -4.77092,3.23318 -8.30555,3.23318 -3.41182,0 -6.12391,-1.07258 -8.13626,-3.21775 -2.01236,-2.14516 -3.01854,-4.63777 -3.01854,-7.47784 z m 3.09476,0 c 0,2.30885 0.77127,4.21926 2.31383,5.73126 1.54254,1.512 3.47852,2.26799 5.80794,2.26799 2.34935,0 4.2953,-0.75599 5.83787,-2.26799 1.54253,-1.512 2.3138,-3.41212 2.31382,-5.70039 -2e-5,-2.30883 -0.77129,-4.2141 -2.31382,-5.71582 -1.54257,-1.50169 -3.48852,-2.25255 -5.83787,-2.25257 -2.32942,2e-5 -4.2654,0.75088 -5.80794,2.25257 -1.54256,1.50172 -2.31383,3.40699 -2.31383,5.71582 z"
           style="font-variant:normal;font-stretch:normal;font-family:GillSans;-inkscape-font-specification:GillSans"
           id="path3015" />
        <path
           d="m 757.43772,727.70381 5.27111,0 c 2.12489,0.0206 3.80025,0.55182 5.02607,1.59368 1.22579,1.04189 1.8387,2.47221 1.83871,4.29095 -10e-6,1.20525 -0.30132,2.24712 -0.90392,3.12563 -0.60263,0.87853 -1.46572,1.54256 -2.58926,1.9921 0.59232,0.38845 1.12853,0.84813 1.60864,1.37903 0.48008,0.53092 0.94491,1.1337 1.39447,1.80832 0.2656,0.38783 0.53635,0.80136 0.81227,1.24062 0.27588,0.43926 0.55661,0.89395 0.8422,1.36407 0.12281,0.20451 0.2405,0.39873 0.35305,0.58266 0.11253,0.18394 0.22991,0.35759 0.35213,0.52094 0.0206,0.0405 0.0461,0.0864 0.0767,0.13748 0.0305,0.0511 0.0664,0.0973 0.10755,0.13842 0.24502,0.36725 0.52077,0.76037 0.82724,1.17936 0.30643,0.419 0.68443,0.93495 1.134,1.54785 l -3.58578,0 -2.75807,-4.29096 c -1.16471,-1.79755 -2.10465,-3.00793 -2.8198,-3.63113 -0.71516,-0.62318 -1.38917,-0.97562 -2.02202,-1.05731 -0.12284,-0.0206 -0.24052,-0.036 -0.35306,-0.0463 -0.11255,-0.0103 -0.22992,-0.0154 -0.35212,-0.0154 l -1.25699,-0.0299 0,9.07105 -3.00311,0 0,-20.90111 z m 3.00311,2.57476 0,6.55802 1.93131,0 c 1.59366,0.0206 2.67653,-0.31143 3.24861,-0.99605 0.57205,-0.68459 0.85809,-1.45587 0.8581,-2.31382 -10e-6,1e-5 -10e-6,-0.005 0,-0.0154 -10e-6,-0.0103 -10e-6,-0.0154 0,-0.0154 -10e-6,2e-5 -10e-6,-0.005 0,-0.015 -10e-6,-0.01 -10e-6,-0.0149 0,-0.015 -0.0206,-0.98075 -0.34762,-1.75203 -0.98109,-2.31382 -0.63349,-0.56176 -1.67536,-0.84265 -3.12562,-0.84267 l -1.93131,-0.0309 z"
           style="font-variant:normal;font-stretch:normal;font-family:GillSans;-inkscape-font-specification:GillSans"
           id="path3017" />
        <path
           d="m 778.90653,727.70381 0,20.90111 -3.00404,0 0,-20.90111 3.00404,0 z"
           style="font-variant:normal;font-stretch:normal;font-family:GillSans;-inkscape-font-specification:GillSans"
           id="path3019" />
        <path
           d="m 802.87154,727.70381 0,20.90111 -2.57382,0 -13.97554,-16.08922 0,16.08922 -2.81886,0 0,-20.90111 2.39051,0 14.15885,16.18181 0,-16.18181 2.81886,0 z"
           style="font-variant:normal;font-stretch:normal;font-family:GillSans;-inkscape-font-specification:GillSans"
           id="path3021" />
        <path
           d="m 825.8031,738.30775 0,8.85687 c -0.6335,0.28619 -1.23628,0.53139 -1.80832,0.73558 -0.57208,0.2042 -1.14399,0.37769 -1.71573,0.52047 -0.71518,0.14341 -1.43548,0.25595 -2.16091,0.33763 -0.72546,0.0817 -1.4866,0.12252 -2.28343,0.12252 -3.20731,0 -5.86328,-0.99605 -7.96791,-2.98814 -2.10465,-1.9921 -3.15696,-4.5204 -3.15696,-7.58493 0,-3.08509 1.07273,-5.66452 3.21821,-7.73832 2.14548,-2.07375 4.81158,-3.11064 7.99832,-3.11066 0.38843,2e-5 0.76658,0.0103 1.13446,0.0309 0.36786,0.0206 0.72544,0.0614 1.07274,0.12251 0.75567,0.10228 1.53708,0.28107 2.34422,0.53637 0.80711,0.25535 1.77245,0.61807 2.89602,1.08817 l 0,3.00311 c -0.91906,-0.49068 -1.84855,-0.89424 -2.78846,-1.21069 -0.93995,-0.31641 -1.87973,-0.54632 -2.81933,-0.68975 -0.32736,-0.0405 -0.6494,-0.0711 -0.96612,-0.0917 -0.31676,-0.0206 -0.6282,-0.0308 -0.93432,-0.0309 -2.2677,2e-5 -4.17796,0.76615 -5.73079,2.2984 -1.55284,1.53227 -2.32926,3.43256 -2.32925,5.70085 -10e-6,2.3288 0.79168,4.23391 2.37508,5.71535 1.58338,1.48145 3.61117,2.22217 6.08337,2.22217 0.81741,0 1.59897,-0.0818 2.34469,-0.2455 0.7457,-0.16367 1.47613,-0.35773 2.19131,-0.5822 l 0,-4.32088 -4.01506,0 0,-2.69728 7.01817,0 z"
           style="font-variant:normal;font-stretch:normal;font-family:GillSans;-inkscape-font-specification:GillSans"
           id="path3023" />
      </g>
    </g>
    <g
       id="g3087"
       transform="matrix(6.7949015,0,0,6.7949015,-44.999857,468.76072)">
      <g
         id="g3101"
         transform="matrix(0.83899775,0,0,0.83899775,71.865485,-19.515309)">
        <path
           inkscape:connector-curvature="0"
           d="M 27.261,1.217 C 27.22,1.21 27.178,1.203 27.136,1.196 L 27.086,1.188 C 27.015,1.178 26.943,1.17 26.87,1.164 26.82,1.16 26.771,1.155 26.722,1.152 26.634,1.147 26.547,1.145 26.463,1.145 c -0.038,0 -0.06,0 -0.097,10e-4 -0.07,0.001 -0.139,0.005 -0.206,0.009 -0.039,0.002 -0.077,0.006 -0.114,0.01 -0.055,0.004 -0.11,0.011 -0.163,0.017 l -0.046,0.006 -0.049,0.008 -0.062,0.011 c -0.027,0.004 -0.053,0.009 -0.08,0.014 -0.036,0.006 -0.073,0.013 -0.108,0.021 -0.221,0.047 -0.425,0.109 -0.612,0.183 -0.097,0.038 -0.191,0.079 -0.28,0.122 -0.074,0.036 -0.145,0.074 -0.213,0.112 -0.066,0.038 -0.13,0.077 -0.191,0.118 -0.035,0.023 -0.07,0.047 -0.103,0.071 -0.029,0.021 -0.058,0.042 -0.086,0.063 -0.058,0.046 -0.115,0.092 -0.168,0.139 -0.05,0.044 -0.098,0.089 -0.144,0.134 -0.038,0.039 -0.077,0.078 -0.114,0.119 -0.037,0.042 -0.074,0.084 -0.11,0.128 -0.038,0.048 -0.076,0.096 -0.112,0.147 -0.028,0.036 -0.053,0.074 -0.079,0.113 -0.017,0.026 -0.034,0.054 -0.051,0.079 -0.097,0.159 -0.182,0.329 -0.251,0.509 -0.087,0.227 -0.15,0.47 -0.184,0.728 -0.011,0.081 -0.02,0.164 -0.025,0.248 -0.003,0.063 -0.006,0.13 -0.006,0.196 0,0.051 10e-4,0.099 0.004,0.147 0.003,0.051 0.007,0.101 0.013,0.151 l 0.003,0.034 c 0.008,0.06 0.017,0.117 0.028,0.176 0.005,0.021 0.01,0.044 0.014,0.065 0.01,0.048 0.021,0.096 0.034,0.143 0.016,0.06 0.034,0.119 0.053,0.177 0.024,0.071 0.049,0.14 0.078,0.208 0.044,0.105 0.094,0.209 0.146,0.306 0.032,0.057 0.063,0.112 0.096,0.165 0.027,0.042 0.054,0.083 0.082,0.123 0.036,0.052 0.073,0.104 0.111,0.151 0.039,0.051 0.08,0.098 0.119,0.144 0.049,0.058 0.1,0.109 0.148,0.157 l 0.026,0.026 c 0.04,0.038 0.083,0.079 0.133,0.122 0.033,0.027 0.069,0.059 0.107,0.089 0.036,0.027 0.073,0.056 0.112,0.085 0.047,0.033 0.096,0.066 0.149,0.101 0.055,0.036 0.113,0.072 0.175,0.106 0.123,0.068 0.258,0.135 0.407,0.193 0.056,0.023 0.114,0.044 0.173,0.065 0.059,0.02 0.12,0.039 0.182,0.057 0.108,0.03 0.22,0.059 0.338,0.08 0.095,0.02 0.194,0.034 0.296,0.047 0.102,0.013 0.207,0.021 0.316,0.027 0.053,0.003 0.106,0.004 0.161,0.005 0.025,0.001 0.051,0.001 0.076,0.001 0.195,0 0.376,-0.007 0.543,-0.021 l 0.033,-0.003 c 0.067,-0.007 0.131,-0.014 0.194,-0.021 0.095,-0.011 0.187,-0.025 0.273,-0.041 0.056,-0.01 0.108,-0.02 0.16,-0.032 0.08,-0.016 0.156,-0.035 0.229,-0.055 C 27.874,7.415 27.926,7.4 27.976,7.385 28.035,7.367 28.093,7.348 28.149,7.33 L 28.2,7.31 c 0.027,-0.009 0.063,-0.021 0.105,-0.039 0.057,-0.021 0.123,-0.049 0.2,-0.081 0.046,-0.02 0.096,-0.042 0.147,-0.064 0.045,-0.021 0.092,-0.044 0.141,-0.068 0.02,-0.01 0.039,-0.019 0.061,-0.029 V 5.838 C 28.84,5.846 28.825,5.855 28.811,5.862 l -0.082,0.051 c -0.08,0.049 -0.16,0.096 -0.238,0.139 -0.086,0.046 -0.172,0.09 -0.254,0.13 C 28.089,6.251 27.947,6.31 27.81,6.359 27.55,6.453 27.311,6.511 27.101,6.548 27.076,6.552 27.051,6.556 27.027,6.56 26.969,6.569 26.913,6.576 26.86,6.582 26.777,6.591 26.7,6.596 26.63,6.599 26.585,6.601 26.543,6.602 26.504,6.602 26.419,6.602 26.332,6.6 26.243,6.594 26.14,6.586 26.034,6.574 25.927,6.557 25.755,6.528 25.582,6.484 25.413,6.423 25.387,6.414 25.362,6.403 25.338,6.394 25.321,6.387 25.304,6.38 25.289,6.374 25.261,6.361 25.234,6.35 25.206,6.337 25.148,6.31 25.09,6.279 25.033,6.248 25.006,6.231 24.979,6.216 24.95,6.197 24.921,6.178 24.893,6.161 24.865,6.141 24.831,6.118 24.796,6.092 24.762,6.066 24.73,6.041 24.697,6.012 24.669,5.989 L 24.629,5.954 24.61,5.936 24.598,5.925 24.584,5.911 C 24.531,5.857 24.481,5.804 24.437,5.751 24.411,5.72 24.388,5.689 24.365,5.658 24.344,5.63 24.324,5.6 24.304,5.57 24.286,5.543 24.268,5.514 24.252,5.486 24.228,5.444 24.205,5.402 24.184,5.36 24.167,5.324 24.151,5.29 24.136,5.254 24.11,5.193 24.088,5.134 24.07,5.075 24.056,5.03 24.043,4.986 24.032,4.943 24.001,4.819 23.985,4.706 23.976,4.608 23.972,4.571 23.97,4.537 23.968,4.504 23.966,4.457 23.965,4.415 23.965,4.382 c 0,-0.022 0.001,-0.047 0.002,-0.075 0.003,-0.069 0.008,-0.155 0.023,-0.253 0.008,-0.06 0.02,-0.124 0.036,-0.191 0.011,-0.045 0.023,-0.089 0.037,-0.136 0.014,-0.043 0.029,-0.085 0.046,-0.129 0.011,-0.03 0.023,-0.059 0.036,-0.089 0.017,-0.04 0.037,-0.081 0.058,-0.122 0.015,-0.03 0.033,-0.061 0.051,-0.092 0.039,-0.068 0.083,-0.135 0.134,-0.202 0.018,-0.024 0.037,-0.048 0.056,-0.072 0.026,-0.03 0.052,-0.062 0.08,-0.092 0.014,-0.014 0.028,-0.03 0.043,-0.045 0.218,-0.218 0.464,-0.382 0.718,-0.498 0.04,-0.018 0.08,-0.034 0.12,-0.05 0.041,-0.017 0.081,-0.03 0.122,-0.044 0.044,-0.016 0.089,-0.028 0.133,-0.041 0.042,-0.013 0.084,-0.022 0.126,-0.032 0.041,-0.009 0.084,-0.018 0.125,-0.025 0.047,-0.009 0.093,-0.016 0.138,-0.021 0.047,-0.006 0.092,-0.011 0.138,-0.016 0.086,-0.007 0.172,-0.011 0.255,-0.011 0.028,0 0.055,0 0.082,0 0.062,0.002 0.122,0.004 0.182,0.008 0.041,0.003 0.08,0.006 0.12,0.01 0.075,0.007 0.147,0.016 0.216,0.026 0.061,0.009 0.121,0.02 0.176,0.03 0.086,0.017 0.164,0.036 0.234,0.055 0.046,0.013 0.088,0.024 0.126,0.036 0.058,0.018 0.107,0.032 0.146,0.045 0.066,0.023 0.102,0.037 0.102,0.037 0.059,0.021 0.116,0.044 0.172,0.066 0.076,0.029 0.149,0.063 0.218,0.094 0.058,0.027 0.112,0.054 0.164,0.079 0.043,0.021 0.082,0.042 0.12,0.061 0.064,0.034 0.119,0.064 0.164,0.089 l 0.123,0.066 v -1.17 c 0,0 -0.073,-0.03 -0.199,-0.078 C 28.531,1.579 28.466,1.554 28.391,1.528 28.349,1.513 28.306,1.498 28.259,1.481 28.222,1.469 28.184,1.457 28.144,1.443 28.1,1.429 28.053,1.414 28.006,1.399 27.971,1.389 27.936,1.378 27.9,1.369 L 27.868,1.358 C 27.833,1.349 27.798,1.339 27.762,1.33 27.72,1.318 27.677,1.308 27.633,1.297 27.605,1.29 27.577,1.282 27.548,1.276 27.502,1.265 27.455,1.255 27.408,1.246 27.36,1.234 27.31,1.226 27.261,1.217 M 21.409,0 H 30.7 V 8.742 H 21.409 V 0 z"
           id="path6"
           style="fill:#000000" />
        <path
           inkscape:connector-curvature="0"
           d="m 14.269,4.821 v 1.718 h 1.115 c 0,0 0.023,-10e-4 0.059,-0.002 0.038,-0.001 0.091,-0.003 0.155,-0.009 0.122,-0.012 0.281,-0.033 0.436,-0.085 0.14,-0.048 0.276,-0.118 0.38,-0.224 0.04,-0.039 0.073,-0.082 0.1,-0.124 0.088,-0.138 0.11,-0.277 0.114,-0.356 0.003,-0.034 0.003,-0.054 0.003,-0.054 0,0 0.001,-0.017 0,-0.044 C 16.63,5.609 16.626,5.544 16.608,5.476 16.587,5.395 16.548,5.299 16.478,5.213 16.464,5.196 16.45,5.18 16.434,5.164 16.404,5.133 16.371,5.104 16.334,5.077 16.273,5.032 16.204,4.994 16.128,4.961 16.028,4.917 15.915,4.885 15.792,4.862 15.729,4.85 15.662,4.84 15.594,4.834 15.552,4.83 15.51,4.827 15.465,4.825 15.427,4.822 15.387,4.821 15.347,4.821 c -0.396,0.001 -1.078,0 -1.078,0"
           id="path8"
           style="fill:#000000" />
        <path
           inkscape:connector-curvature="0"
           d="m 14.269,2.209 v 1.629 h 0.54 c 0,0 0.036,0 0.084,-0.002 0.037,-10e-4 0.082,-0.004 0.121,-0.005 0.111,-0.009 0.265,-0.023 0.419,-0.066 0.03,-0.01 0.06,-0.019 0.089,-0.029 0.121,-0.042 0.237,-0.105 0.326,-0.194 0.072,-0.07 0.119,-0.147 0.15,-0.224 C 16.037,3.225 16.05,3.134 16.056,3.073 16.06,3.016 16.06,2.98 16.06,2.98 c 0,0 0.001,-0.027 -10e-4,-0.069 C 16.055,2.84 16.041,2.725 15.985,2.614 15.957,2.56 15.921,2.509 15.871,2.459 15.81,2.4 15.736,2.355 15.657,2.319 15.505,2.252 15.331,2.225 15.184,2.215 15.12,2.211 15.062,2.21 15.013,2.21 h -0.744"
           id="path10"
           style="fill:#000000" />
        <path
           inkscape:connector-curvature="0"
           d="m 13.142,1.226 v 6.297 h 2.369 c 0,0 1.157,0.032 1.795,-0.606 0.519,-0.52 0.482,-1.12 0.482,-1.12 0,0 0.037,-0.627 -0.444,-1.109 -0.41,-0.409 -0.933,-0.519 -0.933,-0.519 0,0 0.236,-0.11 0.418,-0.292 0.085,-0.085 0.387,-0.358 0.387,-1.021 0,-0.669 -0.444,-1.053 -0.444,-1.053 0,0 -0.487,-0.576 -1.587,-0.576 H 13.142 M 10.704,0 h 9.29 v 8.742 h -9.29 V 0 z"
           id="path12"
           style="fill:#000000" />
        <path
           inkscape:connector-curvature="0"
           d="M 3.564,4.821 V 6.539 H 4.68 c 0,0 0.022,-10e-4 0.058,-0.002 C 4.776,6.536 4.83,6.534 4.894,6.528 5.016,6.517 5.174,6.495 5.33,6.443 5.47,6.395 5.606,6.325 5.71,6.219 5.75,6.18 5.783,6.137 5.81,6.095 5.898,5.957 5.92,5.818 5.925,5.739 5.927,5.705 5.927,5.685 5.927,5.685 c 0,0 0.001,-0.017 0,-0.044 C 5.925,5.609 5.921,5.545 5.903,5.477 5.882,5.396 5.843,5.3 5.773,5.214 5.76,5.197 5.746,5.181 5.73,5.165 5.699,5.134 5.666,5.105 5.63,5.078 5.568,5.033 5.5,4.995 5.423,4.962 5.323,4.918 5.211,4.886 5.087,4.863 5.024,4.852 4.958,4.841 4.89,4.835 4.848,4.831 4.805,4.828 4.76,4.826 4.723,4.823 4.683,4.822 4.644,4.822 4.248,4.822 3.564,4.821 3.564,4.821"
           id="path14"
           style="fill:#000000" />
        <path
           inkscape:connector-curvature="0"
           d="m 3.564,2.209 v 1.629 h 0.54 c 0,0 0.036,0 0.084,-0.002 C 4.226,3.835 4.271,3.832 4.31,3.831 4.42,3.822 4.574,3.808 4.729,3.765 4.759,3.755 4.789,3.746 4.819,3.736 4.939,3.694 5.055,3.631 5.145,3.542 5.216,3.472 5.263,3.395 5.295,3.318 5.333,3.225 5.346,3.134 5.352,3.073 5.357,3.016 5.356,2.98 5.356,2.98 5.356,2.98 5.357,2.952 5.354,2.91 5.352,2.839 5.336,2.725 5.28,2.613 5.253,2.56 5.216,2.508 5.167,2.458 5.106,2.399 5.032,2.354 4.953,2.318 4.8,2.251 4.626,2.225 4.479,2.214 4.417,2.21 4.357,2.209 4.309,2.209 H 3.564"
           id="path16"
           style="fill:#000000" />
        <path
           inkscape:connector-curvature="0"
           d="m 2.437,1.226 v 6.297 h 2.37 c 0,0 1.156,0.032 1.794,-0.606 0.52,-0.52 0.482,-1.12 0.482,-1.12 0,0 0.038,-0.628 -0.443,-1.11 C 6.23,4.277 5.707,4.168 5.707,4.168 c 0,0 0.236,-0.11 0.418,-0.292 C 6.21,3.791 6.512,3.518 6.512,2.854 6.512,2.185 6.067,1.801 6.067,1.801 6.067,1.801 5.58,1.226 4.48,1.226 H 2.437 M 0,0 H 9.289 V 8.742 H 0 V 0 z"
           id="path18"
           style="fill:#000000" />
      </g>
    </g>
  </g>
</svg>
